<mxfile host="app.diagrams.net" modified="2021-04-29T19:37:20.721Z" agent="5.0 (Windows NT 10.0; Win64; x64) AppleWebKit/537.36 (KHTML, like Gecko) Chrome/90.0.4430.93 Safari/537.36" etag="tvc6Eua7ZiJTiMM8tAtQ" version="14.6.9" type="github">
  <diagram name="Page-1" id="f1b7ffb7-ca1e-a977-7cf5-a751b3c06c05">
    <mxGraphModel dx="2062" dy="1122" grid="1" gridSize="10" guides="1" tooltips="1" connect="1" arrows="1" fold="1" page="1" pageScale="1" pageWidth="826" pageHeight="1169" background="#ffffff" math="0" shadow="0">
      <root>
        <mxCell id="0" />
        <mxCell id="1" parent="0" />
        <mxCell id="Xy8-6nkzaGv_LCVEt--X-62" value="&lt;font color=&quot;#000000&quot;&gt;&lt;u&gt;Application web symfony&lt;/u&gt;&lt;/font&gt;" style="strokeWidth=1;shadow=0;dashed=0;align=center;html=1;shape=mxgraph.mockup.containers.window;align=left;verticalAlign=top;spacingLeft=8;strokeColor2=#008cff;strokeColor3=#c4c4c4;fontColor=#666666;mainText=;fontSize=17;labelBackgroundColor=none;" vertex="1" parent="1">
          <mxGeometry x="80" y="130" width="290" height="170" as="geometry" />
        </mxCell>
        <mxCell id="Xy8-6nkzaGv_LCVEt--X-78" value="" style="verticalLabelPosition=bottom;verticalAlign=top;html=1;shadow=0;dashed=0;strokeWidth=1;shape=mxgraph.android.phone2;" vertex="1" parent="1">
          <mxGeometry x="90" y="450" width="170" height="310" as="geometry" />
        </mxCell>
        <mxCell id="Xy8-6nkzaGv_LCVEt--X-79" value="&lt;font style=&quot;font-size: 15px&quot;&gt;- Gestion des séjours&lt;br&gt;&lt;/font&gt;&lt;div style=&quot;font-size: 15px&quot;&gt;&lt;font style=&quot;font-size: 15px&quot;&gt;- Gestion des rendez-vous&amp;nbsp;&lt;/font&gt;&lt;/div&gt;" style="text;html=1;strokeColor=none;fillColor=none;align=left;verticalAlign=middle;whiteSpace=wrap;rounded=0;" vertex="1" parent="1">
          <mxGeometry x="90" y="180" width="200" height="20" as="geometry" />
        </mxCell>
        <mxCell id="Xy8-6nkzaGv_LCVEt--X-83" value="" style="aspect=fixed;perimeter=ellipsePerimeter;html=1;align=center;shadow=0;dashed=0;spacingTop=3;image;image=img/lib/active_directory/database_server.svg;strokeColor=#000000;" vertex="1" parent="1">
          <mxGeometry x="610" y="145" width="114.8" height="140" as="geometry" />
        </mxCell>
        <mxCell id="Xy8-6nkzaGv_LCVEt--X-84" value="&lt;div&gt;&lt;span style=&quot;font-size: 15px&quot;&gt;&lt;u&gt;Hébergement :&lt;/u&gt;&lt;/span&gt;&lt;/div&gt;&lt;div&gt;&lt;span style=&quot;font-size: 15px&quot;&gt;&lt;br&gt;&lt;/span&gt;&lt;/div&gt;&lt;font style=&quot;font-size: 15px&quot;&gt;- Serveur de production linux&lt;br&gt;- Bases de données MySQL&amp;nbsp;&lt;/font&gt;" style="text;html=1;strokeColor=none;fillColor=none;align=left;verticalAlign=middle;whiteSpace=wrap;rounded=0;" vertex="1" parent="1">
          <mxGeometry x="552.4" y="340" width="230" height="20" as="geometry" />
        </mxCell>
        <mxCell id="Xy8-6nkzaGv_LCVEt--X-86" value="" style="edgeStyle=isometricEdgeStyle;endArrow=none;html=1;entryX=0;entryY=0.75;entryDx=0;entryDy=0;" edge="1" parent="1" source="Xy8-6nkzaGv_LCVEt--X-78" target="Xy8-6nkzaGv_LCVEt--X-83">
          <mxGeometry width="50" height="100" relative="1" as="geometry">
            <mxPoint x="240" y="330" as="sourcePoint" />
            <mxPoint x="290" y="230" as="targetPoint" />
            <Array as="points">
              <mxPoint x="430" y="420" />
            </Array>
          </mxGeometry>
        </mxCell>
        <mxCell id="Xy8-6nkzaGv_LCVEt--X-87" value="" style="edgeStyle=isometricEdgeStyle;endArrow=none;html=1;exitX=1.007;exitY=0.594;exitDx=0;exitDy=0;exitPerimeter=0;entryX=0;entryY=0.5;entryDx=0;entryDy=0;" edge="1" parent="1" source="Xy8-6nkzaGv_LCVEt--X-62" target="Xy8-6nkzaGv_LCVEt--X-83">
          <mxGeometry width="50" height="100" relative="1" as="geometry">
            <mxPoint x="380" y="230" as="sourcePoint" />
            <mxPoint x="575.4941034196518" y="289.88521318262497" as="targetPoint" />
            <Array as="points">
              <mxPoint x="490" y="230" />
              <mxPoint x="460" y="220" />
            </Array>
          </mxGeometry>
        </mxCell>
        <mxCell id="Xy8-6nkzaGv_LCVEt--X-90" value="&lt;font style=&quot;font-size: 17px&quot;&gt;&lt;u&gt;Application android&amp;nbsp;&lt;/u&gt;&lt;/font&gt;" style="text;html=1;strokeColor=none;fillColor=none;align=center;verticalAlign=middle;whiteSpace=wrap;rounded=0;sketch=0;" vertex="1" parent="1">
          <mxGeometry x="90" y="420" width="170" height="20" as="geometry" />
        </mxCell>
        <mxCell id="Xy8-6nkzaGv_LCVEt--X-91" value="&lt;font style=&quot;font-size: 14px&quot;&gt;- Gestion des vaccinations contre la Covid 19&lt;/font&gt;" style="text;html=1;strokeColor=none;fillColor=none;align=left;verticalAlign=middle;whiteSpace=wrap;rounded=0;sketch=0;" vertex="1" parent="1">
          <mxGeometry x="105" y="510" width="140" height="20" as="geometry" />
        </mxCell>
        <mxCell id="Xy8-6nkzaGv_LCVEt--X-92" value="&lt;u&gt;Schéma du service informatique de l&#39;hôpital&amp;nbsp;&lt;/u&gt;" style="text;strokeColor=none;fillColor=none;html=1;fontSize=24;fontStyle=1;verticalAlign=middle;align=center;sketch=0;" vertex="1" parent="1">
          <mxGeometry x="230" y="30" width="100" height="40" as="geometry" />
        </mxCell>
      </root>
    </mxGraphModel>
  </diagram>
</mxfile>
